<svg width="98" height="98" viewBox="0 0 98 98" fill="none" xmlns="http://www.w3.org/2000/svg">
<path d="M88.302 21.3314C87.5415 20.2319 86.6802 19.1874 85.8373 18.1428C85.0401 17.1624 84.0414 16.9425 83.2351 17.5473C82.3554 18.1978 82.3096 19.1782 83.1343 20.2869C83.7024 21.0566 84.3529 21.7713 84.8935 22.5684C85.9289 24.0894 87.0009 25.6013 87.8897 27.2047C92.2236 35.0296 94.0745 43.4043 93.3781 52.3471C92.7642 60.2545 90.2537 67.5205 85.6998 73.9894C78.6629 83.9858 69.1245 90.2714 57.0389 92.498C47.3906 94.2755 38.0905 93.0386 29.3585 88.5855C26.234 86.9912 23.4028 84.8196 20.4615 82.8772C19.2979 82.1075 18.3724 82.0892 17.7036 82.9505C17.0713 83.7659 17.2821 84.838 18.3633 85.6168C20.6723 87.2752 22.9263 89.0345 25.3819 90.4455C32.2997 94.4313 39.7948 96.4746 47.7938 96.7403C48.3711 96.7403 48.9483 96.7586 49.5256 96.7311C50.451 96.6853 51.3673 96.6212 52.2835 96.557C61.7852 95.934 70.3798 92.8095 77.9207 87.0095C89.9055 77.7827 96.2919 65.5322 96.9516 50.4779C97.428 39.8401 94.3769 30.1001 88.302 21.3314ZM12.4167 74.0627C6.56175 65.3948 3.91373 55.8747 4.6834 45.4201C5.26981 37.5036 7.77122 30.2376 12.3067 23.7596C19.362 13.6714 28.9828 7.36752 41.1509 5.13183C49.3973 3.61999 57.4513 4.44463 65.2762 7.48664C69.7934 9.24587 73.8708 11.729 77.6275 14.771C78.7087 15.6414 79.7074 15.5681 80.3671 14.7068C80.9719 13.9097 80.7703 12.8926 79.799 12.1046C69.885 4.05979 58.5783 0.284772 45.778 1.10941C36.2305 1.72331 27.6084 4.88444 20.0492 10.7302C7.5055 20.4335 1.36651 33.3529 1 49.3234C1.17409 51.3575 1.2199 53.5932 1.55892 55.7831C2.93333 64.6159 6.42431 72.5233 12.151 79.432C13.0123 80.4674 14.011 80.7331 14.8265 80.11C15.7244 79.4228 15.7428 78.4607 14.8448 77.2788C14.0477 76.1976 13.168 75.1805 12.4167 74.0627ZM74.7871 44.8704C74.6038 43.7159 73.715 43.2852 71.9466 43.5509C66.2566 44.4214 60.5574 45.2918 54.8674 46.199C54.171 46.3089 53.7679 46.1806 53.3281 45.6034C51.917 43.7159 49.9379 43.0745 47.7205 43.6334C46.7584 43.8808 46.2911 43.6701 45.6681 43.047C40.033 37.3845 34.3705 31.7402 28.7171 26.096C27.4252 24.8133 26.4997 24.6208 25.6476 25.4363C24.768 26.2793 24.9512 27.2505 26.289 28.5791C31.9973 34.2783 37.7057 39.9775 43.4324 45.6492C43.9546 46.1623 44.1104 46.5655 43.8722 47.326C42.8001 50.7162 45.3199 54.1063 48.9025 54.2163C51.184 54.2896 53.3097 52.906 54.0702 50.7162C54.3176 50.0015 54.6292 49.6808 55.3805 49.5708C61.043 48.737 66.6964 47.8482 72.3589 46.9961C74.164 46.7212 74.9703 46.0523 74.7871 44.8704ZM49.0124 50.7345C47.9129 50.7162 47.0883 49.8549 47.1249 48.7462C47.1616 47.6925 47.9954 46.9045 49.0583 46.9228C50.1669 46.9411 50.9824 47.8116 50.9458 48.9111C50.9091 49.9648 50.0845 50.7436 49.0124 50.7345ZM47.3173 17.2449C47.3723 18.4544 48.032 19.1232 49.0491 19.1141C50.0662 19.1049 50.7259 18.436 50.7442 17.2082C50.7808 14.8809 50.79 12.5444 50.7442 10.2171C50.7167 9.04429 49.9745 8.31128 49.0124 8.32044C48.0412 8.33877 47.354 9.07178 47.3082 10.2538C47.2624 11.4358 47.299 12.6269 47.299 13.8089H47.3082C47.3082 14.9542 47.2715 16.0996 47.3173 17.2449ZM17.392 50.5329C18.6107 50.4779 19.2795 49.8182 19.2612 48.8012C19.2521 47.7841 18.5832 47.1335 17.3462 47.1152C15.0097 47.0694 12.6733 47.0694 10.3368 47.1061C9.16395 47.1244 8.43093 47.8757 8.4401 48.8378C8.44926 49.7999 9.19144 50.4871 10.3734 50.5329C11.5188 50.5787 12.6733 50.5421 13.8186 50.5421C15.0189 50.5421 16.2009 50.5787 17.392 50.5329ZM89.6214 48.8103C89.6123 47.8482 88.8701 47.161 87.6881 47.1152C86.5428 47.0694 85.3883 47.1061 84.243 47.1061C83.0518 47.1061 81.8698 47.0694 80.6787 47.1152C79.4692 47.1702 78.7912 47.8299 78.8095 48.847C78.8186 49.864 79.4875 50.5146 80.7245 50.5329C83.061 50.5787 85.3974 50.5787 87.7339 50.5421C88.8884 50.5146 89.6306 49.7724 89.6214 48.8103ZM47.3265 87.486C47.3723 88.613 48.0595 89.3002 48.9941 89.3277C49.9562 89.3552 50.7259 88.613 50.7534 87.4585C50.7992 85.0854 50.79 82.7214 50.7442 80.3483C50.7167 79.1938 50.057 78.5524 49.0857 78.534C48.0687 78.5066 47.3815 79.1754 47.3357 80.3757C47.2807 81.5211 47.3265 82.6664 47.3265 83.8117C47.3173 85.0395 47.2715 86.2673 47.3265 87.486ZM32.2906 19.9204C33.1152 19.4531 33.3992 18.4819 32.8953 17.5198C32.3455 16.4661 31.7683 15.4215 31.0994 14.4503C30.7879 14.0013 30.2015 13.7264 29.9816 13.5615C28.2865 13.5707 27.5168 14.8443 28.1399 16.1179C28.6621 17.1808 29.2852 18.1978 29.9083 19.2057C30.458 20.0853 31.5026 20.3694 32.2906 19.9204ZM68.0617 19.334C68.6939 18.3719 69.2436 17.364 69.8026 16.3561C69.9858 16.0263 70.0866 15.6506 70.3157 15.0458C69.94 14.6244 69.5918 13.8822 69.0695 13.7264C68.5381 13.5615 67.5669 13.7539 67.2553 14.1571C66.3849 15.2658 65.6885 16.521 65.0746 17.7855C64.6623 18.6376 64.9647 19.4989 65.8443 19.9387C66.6873 20.3602 67.5211 20.1495 68.0617 19.334ZM30.1007 78.2775C29.2852 79.2762 28.6896 80.4582 28.094 81.6219C27.6359 82.5107 27.9749 83.4544 28.7812 83.9034C29.5509 84.334 30.5496 84.0866 31.0811 83.2437C31.7133 82.2449 32.2997 81.2004 32.8678 80.165C33.0327 79.8718 33.0785 79.5236 33.271 78.928C32.8861 78.534 32.4921 77.801 31.979 77.7002C31.4018 77.5811 30.4672 77.8377 30.1007 78.2775ZM65.5511 77.9934C65.1479 78.3966 64.9189 79.377 65.1296 79.9084C65.6152 81.1454 66.3024 82.3366 67.1362 83.3719C67.4936 83.8118 68.4557 84.0683 69.0421 83.94C69.5552 83.8301 69.9308 83.0604 70.5539 82.3824C69.4452 80.7239 68.5198 79.1663 67.3836 77.7735C67.1454 77.4987 65.9084 77.6361 65.5511 77.9934ZM19.4995 29.8802C18.4274 29.1472 17.2912 28.4967 16.1276 27.9194C15.2755 27.4979 14.46 27.727 13.9285 28.57C13.4246 29.358 13.6262 30.3109 14.4966 30.8698C15.5595 31.557 16.6499 32.2075 17.7769 32.7665C18.9772 33.362 20.2325 32.5924 20.2783 30.9889C20.1317 30.769 19.9209 30.1734 19.4995 29.8802ZM81.879 27.9469C80.7428 28.4967 79.6524 29.1564 78.5896 29.8436C77.7649 30.375 77.5634 31.3829 78.0123 32.1617C78.443 32.9131 79.46 33.2063 80.3396 32.7481C81.43 32.1801 82.5112 31.5845 83.5099 30.8881C83.9589 30.5766 84.2155 29.981 84.3804 29.7519C84.3346 28.121 83.0885 27.3513 81.879 27.9469ZM15.4404 70.2693C17.0805 69.1881 18.629 68.2718 20.0034 67.1632C20.2874 66.9341 20.1775 65.7063 19.8293 65.3398C19.4353 64.9275 18.4366 64.6618 17.9235 64.8633C16.659 65.3764 15.4862 66.1553 14.3317 66.9066C13.6353 67.3556 13.4429 68.1619 13.8369 68.8399C14.1484 69.3714 14.7807 69.7012 15.4404 70.2693ZM83.794 66.9799C82.5753 66.1919 81.3292 65.4131 80.019 64.7992C79.2126 64.4235 78.3788 64.7625 77.9757 65.5963C77.5908 66.3935 77.71 67.2273 78.4979 67.7404C79.625 68.4734 80.7703 69.179 81.9798 69.7562C83.1709 70.3243 84.3987 69.4447 84.3621 67.8779C84.2704 67.7129 84.133 67.1907 83.794 66.9799Z" fill="#226AE2" stroke="#226AE2"/>
</svg>
