<svg width="96" height="96" viewBox="0 0 96 96" fill="none" xmlns="http://www.w3.org/2000/svg">
<path d="M47.9761 0C32.7671 0 20.3938 12.3735 20.3938 27.5824C20.3938 33.9045 22.5817 40.0682 26.5593 44.9647C26.589 45.0107 26.6208 45.0555 26.655 45.099L46.4981 70.521C46.8534 70.9762 47.3986 71.2423 47.9761 71.2423C48.5536 71.2423 49.0987 70.9761 49.454 70.5206L69.3924 44.9649C69.3993 44.9559 69.4061 44.9471 69.4128 44.9381C73.376 40.0477 75.5581 33.8871 75.5581 27.5824C75.5585 12.3735 63.1852 0 47.9761 0ZM66.4595 42.627C66.4357 42.6562 66.4132 42.6857 66.3915 42.7159L47.9758 66.3201L29.7459 42.9651C29.7005 42.891 29.6495 42.8196 29.5933 42.7513C26.0788 38.4975 24.1434 33.1104 24.1434 27.5824C24.1434 14.4411 34.8348 3.74962 47.9761 3.74962C61.1175 3.74962 71.8089 14.4411 71.8091 27.5824C71.8091 33.0514 69.9091 38.3944 66.4595 42.627Z" fill="#226AE2"/>
<path d="M64.1587 23.2047C63.8656 22.2116 62.8229 21.6442 61.8299 21.9371C60.8367 22.2301 60.2692 23.2726 60.5622 24.2658C61.9252 28.886 60.6582 33.8699 57.2557 37.2725C54.7771 39.7512 51.4814 41.1162 47.9761 41.1162C44.4708 41.1162 41.1751 39.7512 38.6964 37.2723C36.2176 34.7936 34.8526 31.4981 34.8526 27.9926C34.8526 24.4871 36.2176 21.1914 38.6965 18.7128C42.1025 15.3067 47.0905 14.0409 51.7143 15.4096C52.7075 15.7038 53.7504 15.137 54.0442 14.1442C54.3382 13.1514 53.7714 12.1081 52.7787 11.8143C46.8357 10.0552 40.424 11.6827 36.0453 16.0614C32.8585 19.2483 31.1034 23.4856 31.1034 27.9926C31.1034 32.4995 32.8584 36.7366 36.0453 39.9236C39.2322 43.1105 43.4695 44.8657 47.9765 44.8657C52.4834 44.8657 56.7205 43.1105 59.9075 39.9239C64.2817 35.5497 65.9107 29.1432 64.1587 23.2047Z" fill="#226AE2"/>
<path d="M59.9407 16.0942L59.9075 16.0609C59.1751 15.3287 57.988 15.3287 57.256 16.0609C56.5239 16.7932 56.5239 17.9803 57.256 18.7123L57.2892 18.7457C57.6552 19.1119 58.1351 19.2949 58.6149 19.2949C59.0947 19.2949 59.5745 19.1119 59.9407 18.7457C60.6727 18.0135 60.6727 16.8264 59.9407 16.0942Z" fill="#226AE2"/>
<path d="M76.8016 57.2445C75.8182 56.9214 74.7582 57.4556 74.4346 58.4393C74.111 59.4227 74.6459 60.4825 75.6293 60.8063C86.0337 64.23 92.245 69.3598 92.245 74.5283C92.245 78.8985 87.7377 83.3205 79.8785 86.6599C71.3941 90.265 60.0728 92.2504 47.9999 92.2504C35.927 92.2504 24.6057 90.265 16.1213 86.6599C8.26228 83.3205 3.75478 78.8987 3.75478 74.5283C3.75478 70.8683 6.91153 67.1505 12.6438 64.0594C18.7002 60.7933 27.2774 58.428 36.7951 57.3992C37.8245 57.2878 38.5689 56.3633 38.4575 55.3337C38.3461 54.3043 37.4212 53.5592 36.392 53.6713C26.4033 54.7511 17.3373 57.2683 10.8638 60.7592C3.76003 64.59 0.00515747 69.3512 0.00515747 74.5283C0.00515747 80.5626 5.20791 86.0967 14.6549 90.1109C23.5928 93.9083 35.4348 95.9999 48.0001 95.9999C60.5654 95.9999 72.4073 93.9083 81.3449 90.1109C90.7919 86.0967 95.9947 80.5628 95.9947 74.5283C95.9947 67.5581 88.9992 61.2585 76.8016 57.2445Z" fill="#226AE2"/>
<path d="M68.2233 54.997L68.1581 54.9839C67.1431 54.7793 66.1542 55.4361 65.9495 56.451C65.7449 57.466 66.4017 58.4549 67.4167 58.6596L67.4819 58.6727C67.6072 58.6979 67.7317 58.7101 67.8547 58.7101C68.7286 58.7101 69.5109 58.0952 69.6905 57.2056C69.8951 56.1906 69.2382 55.2017 68.2233 54.997Z" fill="#226AE2"/>
<path d="M33.8249 63.1915C33.6218 62.1764 32.6342 61.518 31.6187 61.7207C31.5766 61.7292 31.5317 61.7397 31.4901 61.7511C30.4913 62.0235 29.9024 63.054 30.1748 64.053C30.4022 64.887 31.1579 65.4351 31.9825 65.4351C32.1301 65.4351 32.2795 65.4176 32.4288 65.3811C33.4017 65.1458 34.0231 64.1818 33.8249 63.1915Z" fill="#226AE2"/>
<path d="M54.2555 60.1399C53.2222 60.0603 52.3209 60.8305 52.2401 61.8627C52.1593 62.8949 52.9306 63.7973 53.9628 63.8781C66.2038 64.8363 72.7233 68.4166 72.7233 70.6326C72.7233 71.7017 71.0189 73.5179 66.2154 75.1176C61.3775 76.7288 54.9086 77.6162 47.9999 77.6162C41.0913 77.6162 34.6222 76.729 29.7845 75.1176C24.981 73.5179 23.2766 71.7017 23.2766 70.6326C23.2766 69.6556 24.6016 68.4237 26.8211 67.3379C27.7511 66.8828 28.136 65.7601 27.681 64.8301C27.2259 63.9001 26.1031 63.5149 25.173 63.9702C20.5065 66.2536 19.5268 68.8536 19.5268 70.633C19.5268 77.6794 33.8504 81.3662 47.9998 81.3662C62.1491 81.3662 76.4728 77.6794 76.4729 70.6328C76.4731 64.1716 64.5046 60.9423 54.2555 60.1399Z" fill="#226AE2"/>
</svg>
