<?xml version="1.0" encoding="UTF-8"?>
<svg width="912px" height="767px" viewBox="0 0 912 767" version="1.1" xmlns="http://www.w3.org/2000/svg" xmlns:xlink="http://www.w3.org/1999/xlink">
    <!-- Generator: Sketch 55.1 (78136) - https://sketchapp.com -->
    <title>Group 831</title>
    <desc>Created with Sketch.</desc>
    <defs>
        <polygon id="path-1" points="0 0.247848797 82.0775358 0.247848797 82.0775358 144.730778 0 144.730778"></polygon>
        <polygon id="path-3" points="0 0.796235866 82.8661436 0.796235866 82.8661436 70.5067982 0 70.5067982"></polygon>
    </defs>
    <g id="Сайт" stroke="none" stroke-width="1" fill="none" fill-rule="evenodd" opacity="0.2">
        <g id="7-1-Оплата-штрафов-Copy-4">
            <g id="Group-831" transform="translate(113.000000, 157.000000) rotate(148.000000) translate(-113.000000, -157.000000) translate(-652.000000, -350.000000)">
                <g id="Group-9" transform="translate(0.000000, 142.000000)">
                    <mask id="mask-2" fill="white">
                        <use xlink:href="#path-1"></use>
                    </mask>
                    <g id="Clip-8"></g>
                    <polygon id="Fill-7" fill="#0076C0" mask="url(#mask-2)" points="-0.00127194805 83.6438265 59.5767748 3.25025601 80.5766371 142.75451 -0.00127194805 106.636945 -0.00127194805 107.941789 82.0775358 144.730778 60.3272242 0.247848797 -0.00127194805 81.65489"></polygon>
                </g>
                <g id="Group-27" transform="translate(0.000000, 247.000000)">
                    <mask id="mask-4" fill="white">
                        <use xlink:href="#path-3"></use>
                    </mask>
                    <g id="Clip-26"></g>
                    <polygon id="Fill-25" fill="#0076C0" mask="url(#mask-4)" points="-0.00127194805 0.796235866 -0.00127194805 2.10768571 79.7880294 38.0515976 -0.00127194805 69.2208134 -0.00127194805 70.5067982 82.8661436 38.1279927"></polygon>
                </g>
                <path d="M61.7610916,143.174764 L176.479993,213.174257 L209.256822,91.8511005 L61.7610916,143.174764 Z M177.217981,215 L59,142.883152 L211,90 L177.217981,215 Z" id="Fill-28" fill="#0076C0"></path>
                <path d="M223.434783,350.542871 L241.763807,390.889455 L253.216216,321.414915 L223.434783,350.542871 Z M242.306698,395 L222,350.277267 L255,318 L242.306698,395 Z" id="Fill-39" fill="#0076C0"></path>
                <path d="M62.5484565,143.34364 L83.5541573,283.860155 L176.893084,213.601897 L62.5484565,143.34364 Z M82.6783909,286 L61,141 L179,213.5 L82.6783909,286 Z" id="Fill-41" fill="#0076C0"></path>
                <path d="M454.470799,223.648195 L549.692367,254.010689 L484.66022,123.213502 L454.470799,223.648195 Z M552,256 L453,224.426067 L484.381276,120 L552,256 Z" id="Fill-43" fill="#0076C0"></path>
                <path d="M179.038697,214.356578 L222.84521,345.739005 L229.76404,239.705718 L179.038697,214.356578 Z M222.679566,349 L177,212 L231,239.005114 L223.839075,348.859879 L222.679566,349 Z" id="Fill-47" fill="#0076C0"></path>
                <path d="M230.138801,243.472327 L223.375394,347.921966 L252.662461,318.413544 L230.138801,243.472327 Z M222,351 L229.167192,240.127191 L230.328076,240 L254,318.744242 L222,351 Z" id="Fill-49" fill="#0076C0"></path>
                <path d="M242.003589,392.914965 L366.711067,576.015133 L362.001994,369.438626 L242.003589,392.914965 Z M368,580 L240,392.100168 L363.16331,368 L368,580 Z" id="Fill-51" fill="#0076C0"></path>
                <path d="M83.4632616,286.977654 L106.939068,463.486466 L221.93871,350.505005 L83.4632616,286.977654 Z M106.073835,466 L105.908423,464.813408 L82,285 L82.9797491,285.446567 L224,350.147751 L223.389247,350.760186 L106.073835,466 Z" id="Fill-55" fill="#0076C0"></path>
                <path d="M84.3093557,285.851818 L222.020552,348.795024 L177.673309,215.926186 L84.3093557,285.851818 Z M224,351 L82,286.105263 L178.269681,214 L224,351 Z" id="Fill-57" fill="#0076C0"></path>
                <path d="M178.406916,213.491064 L229.541923,238.937785 L210.94505,93.2206205 L178.406916,213.491064 Z M231,241 L177,214.12755 L210.574135,90 L211.738039,90.0763784 L231,241 Z" id="Fill-59" fill="#0076C0"></path>
                <path d="M222.974863,350.042254 L109.74993,461.038732 L241.456661,391.678697 L222.974863,350.042254 Z M106.701518,464 L106,463.055458 L223.370263,348 L243,392.202025 L106.701518,464 Z" id="Fill-77" fill="#0076C0"></path>
                <path d="M242.223964,393.674345 L235.227268,590.677744 L365.925031,576.603348 L242.223964,393.674345 Z M234,592 L241.173827,390 L368,577.569612 L234,592 Z" id="Fill-91" fill="#0076C0"></path>
                <path d="M255.244156,318.425386 L362.748318,367.148936 L360.410993,283.635529 L255.244156,318.425386 Z M364,369 L252,318.247887 L361.560497,282 L364,369 Z" id="Fill-99" fill="#0076C0"></path>
                <path d="M211.553857,91.7879397 L230.314774,239.434171 L347.541849,201.930653 L211.553857,91.7879397 Z M229.321325,241 L229.219432,240.287102 L210,89 L350,202.388945 L229.321325,241 Z" id="Fill-101" fill="#0076C0"></path>
                <path d="M229.813227,240.842147 L253.155327,317.488169 L358.207547,282.652533 L229.813227,240.842147 Z M252.376406,319 L228,239 L229.098151,239.355725 L362,282.639828 L252.376406,319 Z" id="Fill-103" fill="#0076C0"></path>
                <path d="M231.856543,241.066358 L359.54111,283.258025 L347.933422,203.562654 L231.856543,241.066358 Z M361,285 L228,241.053549 L348.910244,202 L361,285 Z" id="Fill-105" fill="#0076C0"></path>
                <path d="M254.081459,319.723847 L242.439343,391.516985 L361.140524,368.359135 L254.081459,319.723847 Z M241,393 L253.151618,318 L365,368.802772 L241,393 Z" id="Fill-107" fill="#0076C0"></path>
                <path d="M362.10974,283.034882 L452.81473,301.541303 L452.81473,225.169019 L362.10974,283.034882 Z M454,303 L359,283.605676 L454,223 L454,303 Z" id="Fill-115" fill="#0076C0"></path>
                <path d="M363.848157,368.747185 L452.801884,455.189388 L452.801884,303.340057 L363.848157,368.747185 Z M454,458 L362,368.620008 L454,301 L454,458 Z" id="Fill-129" fill="#0076C0"></path>
                <path d="M363.263421,370.88254 L367.959773,576.380952 L452.443057,457.295238 L363.263421,370.88254 Z M366.849494,580 L362,368 L454,457.142857 L366.849494,580 Z" id="Fill-137" fill="#0076C0"></path>
                <path d="M360.237577,283.455696 L362.572388,366.696203 L451.14209,301.949367 L360.237577,283.455696 Z M361.436879,369 L359,282 L359.739995,282.139241 L454,301.329114 L361.436879,369 Z" id="Fill-141" fill="#0076C0"></path>
                <path d="M348.427006,203.509323 L360.072398,282.991832 L450.891165,224.550316 L348.427006,203.509323 Z M359.155037,285 L347,202 L454,223.974726 L359.155037,285 Z" id="Fill-147" fill="#0076C0"></path>
                <path d="M349.664592,201.541637 L449.322839,222.321708 L385.900527,171.524555 L349.664592,201.541637 Z M451.522384,224 L347,202.207829 L385.887958,170 L452,222.936655 L451.522384,224 Z" id="Fill-149" fill="#0076C0"></path>
                <path d="M578.035674,532.947266 L623.806728,594.810644 L630.672387,521.493429 L578.035674,532.947266 Z M624.691804,598 L576,532.175239 L632,520 L624.691804,598 Z" id="Fill-153" fill="#0076C0"></path>
                <path d="M550.715171,255.218899 L642.20803,343.611511 L616.403665,192.411284 L550.715171,255.218899 Z M644,347 L549,255.218899 L617.197251,190 L644,347 Z" id="Fill-157" fill="#0076C0"></path>
                <path d="M539.668196,420.316971 L648.710161,450.42216 L641.755148,346.208976 L539.668196,420.316971 Z M650,452 L649.203335,451.772791 L537,420.796634 L642.792077,344 L650,452 Z" id="Fill-159" fill="#0076C0"></path>
                <path d="M513.553719,355.753095 L453.863419,455.501821 L536.511527,420.7185 L513.553719,355.753095 Z M451,458 L513.831231,353 L538,421.368536 L451,458 Z" id="Fill-167" fill="#0076C0"></path>
                <path d="M453.150524,301.837366 L513.238692,352.977301 L547.912727,255.340733 L453.150524,301.837366 Z M513.782648,355 L513.13749,354.440259 L451,301.570217 L550,253 L513.782648,355 Z" id="Fill-173" fill="#0076C0"></path>
                <path d="M454.192749,302.559065 L454.192749,453.734891 L514.464653,353.740371 L454.192749,302.559065 Z M453,458 L453,300 L516,353.473006 L453,458 Z" id="Fill-175" fill="#0076C0"></path>
                <path d="M368.946398,576.412291 L542.659234,623.138547 L453.455689,457.254004 L368.946398,576.412291 Z M545,625 L543.676958,624.645438 L367,577.121415 L367.483419,576.424953 L453.595626,455 L545,625 Z" id="Fill-177" fill="#0076C0"></path>
                <path d="M454.188354,224.611931 L454.188354,301.096145 L548.839484,254.743614 L454.188354,224.611931 Z M453,303 L453,223 L552,254.502459 L453,303 Z" id="Fill-185" fill="#0076C0"></path>
                <path d="M454.107944,458.323118 L542.128462,624.084314 L574.572367,533.023244 L454.107944,458.323118 Z M542.343238,627 L541.724176,625.815901 L451,455 L576,532.526686 L575.835759,532.972315 L542.343238,627 Z" id="Fill-191" fill="#0076C0"></path>
                <path d="M453.616441,455.906917 L575.793981,531.237121 L538.201878,420.593474 L453.616441,455.906917 Z M578,534 L451,455.701307 L538.920117,419 L539.125328,419.603978 L578,534 Z" id="Fill-197" fill="#0076C0"></path>
                <path d="M549.888824,255.125783 L514.748709,352.671386 L641.26844,343.383738 L549.888824,255.125783 Z M513,354 L549.391016,253 L644,344.370709 L513,354 Z" id="Fill-199" fill="#0076C0"></path>
                <path d="M821.434139,719.774519 L866.615744,738.160166 L853.060016,620.943734 L821.434139,719.774519 Z M868,740 L820,720.459698 L820.16212,719.93947 L852.785659,618 L853.908028,618.126885 L868,740 Z" id="Fill-201" fill="#0076C0"></path>
                <path d="M544.639412,625.16332 L570.018527,678.569537 L623.064309,597.302544 L544.639412,625.16332 Z M569.853315,681 L543,624.485349 L626,595 L569.853315,681 Z" id="Fill-205" fill="#0076C0"></path>
                <path d="M575.545049,532.483244 L542.978014,623.038874 L622.073032,595.175603 L575.545049,532.483244 Z M541,625 L575.174969,530 L624,595.761394 L541,625 Z" id="Fill-207" fill="#0076C0"></path>
                <path d="M648.215782,452.659598 L578.342268,531.021362 L630.185123,519.49644 L648.215782,452.659598 Z M575,533 L648.994807,450 L650,450.565325 L631.127492,520.511455 L630.775674,520.588545 L575,533 Z" id="Fill-209" fill="#0076C0"></path>
                <path d="M538.833184,421.74449 L575.93936,530.724578 L647.838107,451.881195 L538.833184,421.74449 Z M575.458939,533 L575.142873,532.051907 L537,420 L538.074625,420.30339 L650,451.261774 L575.458939,533 Z" id="Fill-211" fill="#0076C0"></path>
                <path d="M650.314772,451.84366 L631.894181,518.609599 L698.648165,481.774534 L650.314772,451.84366 Z M630,521 L649.590152,450 L701,481.825394 L630,521 Z" id="Fill-219" fill="#0076C0"></path>
                <path d="M515.63877,354.82199 L538.848332,420.085733 L640.934833,345.50589 L515.63877,354.82199 Z M538.251261,422 L514,353.75 L645,344 L538.251261,422 Z" id="Fill-221" fill="#0076C0"></path>
                <path d="M631.212591,520.569891 L624.303385,594.676888 L700.317305,587.73055 L631.212591,520.569891 Z M623,596 L630.263524,518 L703,588.684717 L623,596 Z" id="Fill-227" fill="#0076C0"></path>
                <path d="M624.692112,597.272555 L675.926209,724.806714 L701.549618,590.304859 L624.692112,597.272555 Z M676.333333,729 L623,596.233735 L703,589 L676.333333,729 Z" id="Fill-233" fill="#0076C0"></path>
                <path d="M570.753329,679.116399 L674.830413,725.724866 L623.946041,597.554759 L570.753329,679.116399 Z M677,728 L569,679.624809 L624.198318,595 L677,728 Z" id="Fill-239" fill="#0076C0"></path>
                <path d="M642.742644,343.229792 L738.600797,359.564665 L715.22138,189.140878 L642.742644,343.229792 Z M740,361 L641,344.13164 L641.330721,343.433025 L715.844661,185 L740,361 Z" id="Fill-243" fill="#0076C0"></path>
                <path d="M677.607484,726.872282 L766.236518,783.120789 L794.219279,679.994265 L677.607484,726.872282 Z M766.961526,785 L675,726.629391 L676.081152,726.194743 L796,678 L766.961526,785 Z" id="Fill-247" fill="#0076C0"></path>
                <path d="M740.310861,362.369891 L747.140449,434.753014 L758.505618,355.782711 L740.310861,362.369891 Z M747.61236,440 L746.393258,439.974713 L739,361.586004 L760,354 L747.61236,440 Z" id="Fill-249" fill="#0076C0"></path>
                <path d="M702.373603,590.392075 L676.568944,726.104153 L793.857052,679.306007 L702.373603,590.392075 Z M675,728 L701.608265,588 L796,679.725893 L795.145372,680.069436 L675,728 Z" id="Fill-251" fill="#0076C0"></path>
                <path d="M633.681966,521.961893 L701.839155,589.05093 L722.287571,552.044248 L633.681966,521.961893 Z M702.116166,591 L631,521.000181 L631.591795,520 L724,551.364638 L702.116166,591 Z" id="Fill-253" fill="#0076C0"></path>
                <path d="M618.393103,190.587329 L643.988213,343.042448 L716.112978,188.238331 L618.393103,190.587329 Z M643.456301,347 L617,189.425596 L718,187 L643.456301,347 Z" id="Fill-255" fill="#0076C0"></path>
                <path d="M748.736071,440.594677 L823.169928,482.337884 L862.709336,394.207695 L748.736071,440.594677 Z M823.717143,484 L823.157202,483.682802 L746,440.417046 L865,392 L864.401882,393.33223 L823.717143,484 Z" id="Fill-257" fill="#0076C0"></path>
                <path d="M718.56582,198.273848 L740.794457,361.366394 L758.590069,354.666059 L718.56582,198.273848 Z M739.829099,363 L716,188.216963 L717.155889,188 L760,355.406286 L739.829099,363 Z" id="Fill-259" fill="#0076C0"></path>
                <path d="M631.935393,520.90376 L722.0939,551.09696 L698.96656,483.724231 L631.935393,520.90376 Z M724,553 L629,521.171973 L699.640048,482 L724,553 Z" id="Fill-263" fill="#0076C0"></path>
                <path d="M644.280774,346.411765 L651.255284,450.327731 L739.5399,362.571429 L644.280774,346.411765 Z M650.24081,453 L643,345 L742,361.802521 L650.24081,453 Z" id="Fill-265" fill="#0076C0"></path>
                <path d="M701.1242,482.796586 L746.796415,482.796586 L746.796415,441.688478 L701.1242,482.796586 Z M748,484 L698,484 L748,439 L748,484 Z" id="Fill-267" fill="#0076C0"></path>
                <path d="M699.693819,483.190086 L722.993535,549.379101 L746.306181,483.190086 L699.693819,483.190086 Z M722.993535,553 L698,482 L748,482 L722.993535,553 Z" id="Fill-269" fill="#0076C0"></path>
                <path d="M739.802628,362.620974 L652.246109,450.404624 L746.711661,438.857143 L739.802628,362.620974 Z M649,452 L740.749936,360 L748,439.895403 L649,452 Z" id="Fill-271" fill="#0076C0"></path>
                <path d="M651.498992,452.982778 L699.59423,482.535017 L745.399219,441.629162 L651.498992,452.982778 Z M699.73419,484 L648,452.2124 L749,440 L699.73419,484 Z" id="Fill-273" fill="#0076C0"></path>
                <path d="M702.460799,589.13869 L791.015437,676.322795 L722.899391,552.430263 L702.460799,589.13869 Z M793.055518,680 L701,589.354997 L722.911984,550 L723.415708,550.928844 L794,679.287462 L793.055518,680 Z" id="Fill-277" fill="#0076C0"></path>
                <path d="M748.124768,483.195415 L725.282923,549.973312 L821.216149,483.195415 L748.124768,483.195415 Z M723,553 L747.292321,482 L825,482 L723,553 Z" id="Fill-281" fill="#0076C0"></path>
                <path d="M759.121721,355.62285 L747.465047,439.136258 L861.687721,392.745555 L759.121721,355.62285 Z M746,441 L758.153517,354 L758.841452,354.25357 L865,392.669484 L746,441 Z" id="Fill-289" fill="#0076C0"></path>
                <path d="M795.336364,680.904341 L767.845455,782.185221 L820.523636,720.042568 L795.336364,680.904341 Z M767.030909,785 L766,784.462633 L794.890909,678 L822,720.119335 L821.707273,720.464785 L767.030909,785 Z" id="Fill-291" fill="#0076C0"></path>
                <path d="M748.182009,480.8149 L820.523456,480.8149 L748.182009,440.017192 L748.182009,480.8149 Z M825,482 L747,482 L747,438 L825,482 Z" id="Fill-293" fill="#0076C0"></path>
                <path d="M724.32036,551.545463 L853.291603,616.795024 L822.795437,483.951531 L724.32036,551.545463 Z M855,619 L722,551.69753 L823.57314,482 L855,619 Z" id="Fill-295" fill="#0076C0"></path>
                <path d="M717.238132,188.652378 L869.178228,278.040188 L892.545846,73.3797723 L717.238132,188.652378 Z M870.139234,280 L715,188.703282 L894,71 L893.860907,72.2598794 L870.139234,280 Z" id="Fill-297" fill="#0076C0"></path>
                <path d="M863.821076,391.80032 L940.166189,491.052421 L910.099331,368.727891 L863.821076,391.80032 Z M940.955747,494 L862,391.381052 L910.888889,367 L911.067176,367.711485 L942,493.504502 L940.955747,494 Z" id="Fill-299" fill="#0076C0"></path>
                <path d="M796.483344,680.300746 L821.398492,719.264162 L853.101823,620.697663 L796.483344,680.300746 Z M821.750471,722 L795,680.148048 L795.314268,679.817203 L854.019485,618 L855,618.598067 L821.750471,722 Z" id="Fill-301" fill="#0076C0"></path>
                <path d="M724.922798,552.829814 L794.803077,678.998735 L853.042996,618.259706 L724.922798,552.829814 Z M794.54892,681 L794.154978,680.286173 L722,550 L855,617.91554 L854.453564,618.489151 L794.54892,681 Z" id="Fill-303" fill="#0076C0"></path>
                <path d="M823.768002,482.891932 L940.379796,494.550611 L863.414485,394.301222 L823.768002,482.891932 Z M943,496 L822,483.909046 L863.147377,392 L863.75791,392.788264 L943,496 Z" id="Fill-309" fill="#0076C0"></path>
                <path d="M716.863274,189.474602 L759.208096,354.073892 L869.779385,278.815382 L716.863274,189.474602 Z M758.480654,356 L758.263697,355.183637 L715,187 L872,278.751604 L758.480654,356 Z" id="Fill-311" fill="#0076C0"></path>
                <path d="M760.567607,354.007014 L862.702709,391.347216 L869.659279,279.352039 L760.567607,354.007014 Z M863.790463,393 L863.044213,392.733012 L758,354.324858 L758.948623,353.689171 L871,277 L870.92411,278.207804 L863.790463,393 Z" id="Fill-313" fill="#0076C0"></path>
                <path d="M823.531,483.330466 L854.036166,616.161672 L940.843842,494.987884 L823.531,483.330466 Z M853.462041,619 L822,482 L943,494.012209 L942.413117,494.835831 L853.462041,619 Z" id="Fill-321" fill="#0076C0"></path>
                <path d="M1005.74821,360.981621 L942.954326,492.667786 L1003.42346,488.049445 L1005.74821,360.981621 Z M941,494 L1005.86317,358 L1007,358.253755 L1004.59861,489.153279 L1004.06213,489.178655 L941,494 Z" id="Fill-327" fill="#0076C0"></path>
                <path d="M872.070686,280.677074 L865.284823,391.008054 L910.47817,368.030891 L872.070686,280.677074 Z M864,393 L871.047817,278.203001 L872.170478,278 L912,368.576456 L911.50104,368.830207 L864,393 Z" id="Fill-331" fill="#0076C0"></path>
                <path d="M871.587823,278.986999 L911.181778,368.29562 L983.39597,234.345505 L871.587823,278.986999 Z M911.080158,371 L910.584757,369.897741 L870,278.333333 L986,232 L985.21244,233.461134 L911.080158,371 Z" id="Fill-333" fill="#0076C0"></path>
                <path d="M894.925514,73.7808535 L871.416657,277.160323 L984.289801,232.754325 L894.925514,73.7808535 Z M870,279 L870.114864,278.023068 L894.159754,70 L986,233.350634 L870,279 Z" id="Fill-337" fill="#0076C0"></path>
                <path d="M912.463722,369.653169 L942.55836,492.499493 L1005.04416,360.390093 L912.463722,369.653169 Z M942.192429,496 L911,368.616917 L911.681388,368.553731 L1007,359 L942.192429,496 Z" id="Fill-339" fill="#0076C0"></path>
                <path d="M942.193075,494.934712 L856.921301,616.898285 L960.627492,586.410595 L942.193075,494.934712 Z M854,619 L854.982162,617.590313 L942.797482,492 L962,587.243592 L854,619 Z" id="Fill-341" fill="#0076C0"></path>
                <path d="M984.81025,233.614385 L913.094087,367.577317 L1005.62497,358.18248 L984.81025,233.614385 Z M911,369 L911.529829,367.98746 L985.403154,230 L985.680683,231.704657 L1007,359.246289 L1006.36925,359.310373 L911,369 Z" id="Fill-343" fill="#0076C0"></path>
                <path d="M986.773067,232.957527 L1172.41814,308.251645 L1174.7763,183.544167 L986.773067,232.957527 Z M1173.5781,310 L1172.77505,309.668195 L983,232.715055 L1176,182 L1175.97451,182.778465 L1173.5781,310 Z" id="Fill-413" fill="#0076C0"></path>
                <path d="M925.972628,8.85079542 L984.846018,232.561876 L1173.22559,183.105666 L925.972628,8.85079542 Z M984.00606,234 L983.840614,233.427296 L924,6 L1176,183.602009 L984.00606,234 Z" id="Fill-429" fill="#0076C0"></path>
                <path d="M985.524268,233.913303 L1006.58457,358.482113 L1170.43067,309.118884 L985.524268,233.913303 Z M1005.6446,360 L1005.53028,359.336721 L984,232 L1174,309.297459 L1005.6446,360 Z" id="Fill-433" fill="#0076C0"></path>
                <path d="M1007.89717,358.226746 L1131.31173,400.514424 L1170.89274,308.89539 L1007.89717,358.226746 Z M1131.95914,402 L1131.43867,401.8079 L1004,358.149906 L1173,307 L1172.49223,308.191022 L1131.95914,402 Z" id="Fill-435" fill="#0076C0"></path>
                <path d="M926.810301,9.58034624 L1173.87521,182.697795 L1456.24056,96.1453919 L926.810301,9.58034624 Z M1173.65904,184 L1173.43014,183.835644 L924,9.06199267 L924.432354,8 L1458.9237,95.3868257 L1459,96.524675 L1173.65904,184 Z" id="Fill-528" fill="#0076C0"></path>
                <path d="M65.752,143 C65.752,149.336 56.248,149.336 56.248,143 C56.248,136.664 65.752,136.664 65.752,143" id="Fill-568" fill="#0076C0"></path>
                <path d="M182.034,214 C182.034,220.72 171.966,220.72 171.966,214 C171.966,207.28 182.034,207.28 182.034,214" id="Fill-578" fill="#0076C0"></path>
                <path d="M215.592,90 C215.592,97.464 204.408,97.464 204.408,90 C204.408,82.536 215.592,82.536 215.592,90" id="Fill-580" fill="#0076C0"></path>
                <path d="M227.112,350.0045 C227.112,356.8085 216.888,356.8085 216.888,350.0045 C216.888,343.1885 227.112,343.1885 227.112,350.0045" id="Fill-582" fill="#0076C0"></path>
                <path d="M237,239.495158 C237,249.501614 222,249.501614 222,239.495158 C222,229.501614 237,229.501614 237,239.495158" id="Fill-586" fill="#0076C0"></path>
                <path d="M259.562,318 C259.562,325.416 248.438,325.416 248.438,318 C248.438,310.584 259.562,310.584 259.562,318" id="Fill-596" fill="#0076C0"></path>
                <path d="M355,203 C355,212.333333 341,212.333333 341,203 C341,193.666667 355,193.666667 355,203" id="Fill-602" fill="#0076C0"></path>
                <path d="M368,282.5 C368,293.833333 351,293.833333 351,282.5 C351,271.166667 368,271.166667 368,282.5" id="Fill-606" fill="#0076C0"></path>
                <path d="M371,368.5 C371,379.833333 354,379.833333 354,368.5 C354,357.166667 371,357.166667 371,368.5" id="Fill-608" fill="#0076C0"></path>
                <path d="M399,171.5 C399,186.833333 376,186.833333 376,171.5 C376,156.166667 399,156.166667 399,171.5" id="Fill-616" fill="#0076C0"></path>
                <path d="M460,301.5 C460,311.5 445,311.5 445,301.5 C445,291.5 460,291.5 460,301.5" id="Fill-624" fill="#0076C0"></path>
                <path d="M463,224 C463,237.333333 443,237.333333 443,224 C443,210.666667 463,210.666667 463,224" id="Fill-626" fill="#0076C0"></path>
                <path d="M463,456.5 C463,470.5 442,470.5 442,456.5 C442,442.5 463,442.5 463,456.5" id="Fill-628" fill="#0076C0"></path>
                <path d="M492,122.504905 C492,132.498365 477,132.498365 477,122.504905 C477,112.498365 492,112.498365 492,122.504905" id="Fill-638" fill="#0076C0"></path>
                <path d="M522,354.495208 C522,364.501597 507,364.501597 507,354.495208 C507,344.501597 522,344.501597 522,354.495208" id="Fill-642" fill="#0076C0"></path>
                <path d="M548,420.994952 C548,434.335016 528,434.335016 528,420.994952 C528,407.668349 548,407.668349 548,420.994952" id="Fill-644" fill="#0076C0"></path>
                <path d="M558,254.5 C558,264.5 543,264.5 543,254.5 C543,244.5 558,244.5 558,254.5" id="Fill-648" fill="#0076C0"></path>
                <path d="M584,531.5 C584,541.5 569,541.5 569,531.5 C569,521.5 584,521.5 584,531.5" id="Fill-656" fill="#0076C0"></path>
                <path d="M626,190 C626,202 608,202 608,190 C608,178 626,178 626,190" id="Fill-662" fill="#0076C0"></path>
                <path d="M629.148,597.0045 C629.148,603.8685 618.852,603.8685 618.852,597.0045 C618.852,590.1285 629.148,590.1285 629.148,597.0045" id="Fill-664" fill="#0076C0"></path>
                <path d="M638,519.509579 C638,529.496807 623,529.496807 623,519.509579 C623,509.496807 638,509.496807 638,519.509579" id="Fill-666" fill="#0076C0"></path>
                <path d="M650,345.495396 C650,355.501535 635,355.501535 635,345.495396 C635,335.501535 650,335.501535 650,345.495396" id="Fill-670" fill="#0076C0"></path>
                <path d="M656,451 C656,460.333333 642,460.333333 642,451 C642,441.666667 656,441.666667 656,451" id="Fill-672" fill="#0076C0"></path>
                <path d="M704.584,482.0045 C704.584,488.1125 695.416,488.1125 695.416,482.0045 C695.416,475.8845 704.584,475.8845 704.584,482.0045" id="Fill-680" fill="#0076C0"></path>
                <path d="M709,590.004752 C709,599.331749 695,599.331749 695,590.004752 C695,580.665083 709,580.665083 709,590.004752" id="Fill-682" fill="#0076C0"></path>
                <path d="M724,188 C724,197.333333 710,197.333333 710,188 C710,178.666667 724,178.666667 724,188" id="Fill-684" fill="#0076C0"></path>
                <path d="M733,551 C733,563 715,563 715,551 C715,539 733,539 733,551" id="Fill-688" fill="#0076C0"></path>
                <path d="M745.862,362 C745.862,369.812 734.138,369.812 734.138,362 C734.138,354.188 745.862,354.188 745.862,362" id="Fill-690" fill="#0076C0"></path>
                <path d="M754,439 C754,448.333333 740,448.333333 740,439 C740,429.666667 754,429.666667 754,439" id="Fill-692" fill="#0076C0"></path>
                <path d="M755,482.5 C755,492.5 740,492.5 740,482.5 C740,472.5 755,472.5 755,482.5" id="Fill-694" fill="#0076C0"></path>
                <path d="M763.754,354 C763.754,361.68 752.246,361.68 752.246,354 C752.246,346.32 763.754,346.32 763.754,354" id="Fill-696" fill="#0076C0"></path>
                <path d="M800.586,680.0045 C800.586,687.4445 789.414,687.4445 789.414,680.0045 C789.414,672.5525 800.586,672.5525 800.586,680.0045" id="Fill-700" fill="#0076C0"></path>
                <path d="M831,482.5 C831,493.833333 814,493.833333 814,482.5 C814,471.166667 831,471.166667 831,482.5" id="Fill-706" fill="#0076C0"></path>
                <path d="M873,392 C873,404 855,404 855,392 C855,380 873,380 873,392" id="Fill-712" fill="#0076C0"></path>
                <path d="M879,278.9952 C879,291.0016 861,291.0016 861,278.9952 C861,267.0016 879,267.0016 879,278.9952" id="Fill-716" fill="#0076C0"></path>
                <path d="M902,72 C902,81.3333333 888,81.3333333 888,72 C888,62.6666667 902,62.6666667 902,72" id="Fill-718" fill="#0076C0"></path>
                <path d="M915.842,369 C915.842,375.456 906.158,375.456 906.158,369 C906.158,362.544 915.842,362.544 915.842,369" id="Fill-724" fill="#0076C0"></path>
                <path d="M933,7.5 C933,17.5 918,17.5 918,7.5 C918,-2.5 933,-2.5 933,7.5" id="Fill-728" fill="#0076C0"></path>
                <path d="M992,233 C992,242.333333 978,242.333333 978,233 C978,223.666667 992,223.666667 992,233" id="Fill-734" fill="#0076C0"></path>
            </g>
        </g>
    </g>
</svg>