<svg width="99" height="51" fill="none" xmlns="http://www.w3.org/2000/svg"><g clip-path="url(#clip0)"><path fill-rule="evenodd" clip-rule="evenodd" d="M53.623.178h14.86v6.22h1.386v5.92h-1.387v26.269h4.462V44.7h-4.462v4.372H53.624V.178z" fill="#D87D1A"/><path d="M66.243 24.954c-.036-.693-.284-1.226-.782-1.617-.48-.391-1.067-.587-1.742-.587-.658 0-1.226.196-1.706.587-.48.391-.747.924-.782 1.617.035.711.284 1.245.782 1.618.48.373 1.048.569 1.706.569a2.79 2.79 0 001.724-.57c.498-.372.764-.923.8-1.617zm-12.62-3.537v-6.896l7.768 1.582v-.995a6.947 6.947 0 01-.48-1.191 6.206 6.206 0 01-.214-1.12c0-.071 0-.124-.017-.195 0-.072-.018-.125-.018-.196.018-1.013.231-1.848.64-2.524.409-.657 1.066-.995 1.937-.995.978 0 1.706.302 2.186.889.48.586.747 1.35.782 2.24 0 .141 0 .284-.017.426a3.509 3.509 0 01-.072.426c-.07.462-.266.942-.55 1.422-.285.48-.73.996-1.334 1.564v.728l4.017.356c.09-.124.16-.248.231-.373v4.088a3.426 3.426 0 00-.55-.586c-1.174-1.102-2.613-1.653-4.284-1.653-1.564 0-2.88.444-3.928 1.315-1.049.87-1.582 2.062-1.582 3.59v.231c0 .196.018.391.036.569.017.178.053.338.089.498l-4.64-3.2zm0 13.135v-8.07l4.48 3.005c.32.213.64.409.941.586.32.178.623.32.925.462.586.267 1.19.462 1.777.57a9.517 9.517 0 001.92.177c1.795 0 3.27-.569 4.372-1.706.16-.16.302-.338.444-.516v5.794a6.577 6.577 0 00-.906-.977c-.729-.658-1.795-.978-3.182-.978-1.262 0-2.221.285-2.879.853-.657.57-1.12 1.191-1.35 1.884a.304.304 0 00-.036.09.136.136 0 01-.036.088h-.07c-.179-.746-.57-1.333-1.192-1.76-.622-.426-1.368-.64-2.24-.64-1.243.036-2.239.41-2.968 1.138zm0 16.174v-7.18c.143.142.285.266.427.409.729.64 1.83 1.048 3.27 1.226v-4.355h-.07c-.463 0-.854-.16-1.191-.497a1.696 1.696 0 01-.516-1.156c0-.07 0-.16.018-.23.018-.072.035-.16.071-.232.071-.266.249-.497.498-.71.248-.214.64-.32 1.19-.32.498 0 .871.106 1.138.302.267.195.444.426.533.675.09.195.16.355.16.533.018.16.018.285.018.356v.515h2.88v-.23c-.018-.09-.018-.196-.018-.285v-.285c.017-.622.16-1.12.462-1.475.284-.355.764-.533 1.404-.533.124 0 .266 0 .444.018.16.017.338.053.516.089.337.088.64.284.924.55.284.267.426.694.444 1.28-.035.569-.195.978-.462 1.244a2.437 2.437 0 01-.924.57c-.16.052-.32.07-.462.088-.142.018-.285.018-.41.018h-.088v4.336c.32-.017.711-.07 1.173-.142.462-.07.942-.23 1.44-.444.817-.338 1.564-.942 2.221-1.777 1.014-1.28 1.085-2.969.978-4.533.693-.017 1.51-.053 2.417-.142 1.067-.089 2.15-.337 3.253-.729 2.062-.622 3.946-1.848 5.634-3.679 1.689-1.83 2.524-4.692 2.524-8.584 0-4.764-1.333-8.14-4-10.15-2.594-1.937-5.847-2.932-9.775-2.985.107-2.098-.373-4.39-1.92-5.883-1.261-1.245-2.754-1.867-4.46-1.867-1.476 0-2.702.445-3.68 1.351-.995.907-1.475 2.186-1.475 3.875v.23c0 .32.018.623.036.907.018.267.053.516.106.747l-2.133-.373V5.208h-2.577V.178h19.214c7.127 0 12.477 1.368 16.067 4.088 3.59 2.72 6.097 5.723 7.554 8.993 1.155 2.56 1.849 4.977 2.062 7.252.213 2.293.32 3.928.32 4.941 0 6.505-1.99 12.335-5.99 17.507-3.999 5.172-10.664 7.767-19.995 7.767h-19.25z" fill="#3A2E94"/><path fill-rule="evenodd" clip-rule="evenodd" d="M49.873 34.357c0 9.011-7.11 16.387-15.8 16.387H15.89C7.198 50.744.089 43.368.089 34.357c0-9.012 7.11-16.388 15.8-16.388h18.183c8.692-.018 15.801 7.359 15.801 16.388z" fill="url(#paint0_linear)"/><path opacity=".89" fill-rule="evenodd" clip-rule="evenodd" d="M33.859 50.726c-8.834 0-16.068-7.233-16.068-16.067V16.174C17.791 7.341 25.026.107 33.86.107s16.067 7.234 16.067 16.067V34.66c0 8.851-7.233 16.067-16.067 16.067z" fill="#D87D1A"/></g><defs><linearGradient id="paint0_linear" x1="9.068" y1="50.265" x2="40.896" y2="18.438" gradientUnits="userSpaceOnUse"><stop stop-color="#424C9F"/><stop offset="1" stop-color="#811A82"/></linearGradient><clipPath id="clip0"><path fill="#fff" d="M0 0h99v50.833H0z"/></clipPath></defs></svg>