<svg width="96" height="96" viewBox="0 0 96 96" fill="none" xmlns="http://www.w3.org/2000/svg">
<path d="M93.4517 32.9455L63.0531 2.54725C61.4121 0.906436 59.2238 0.00268555 56.8909 0.00268555C54.5582 0.00268555 52.3697 0.906061 50.7287 2.54687L2.54456 50.7312C0.90375 52.3722 0 54.5603 0 56.8932C0 59.2261 0.90375 61.4146 2.54456 63.0552L6.29306 66.8037C6.29344 66.8039 6.29363 66.8043 6.294 66.8046C6.29438 66.805 6.29475 66.8054 6.29513 66.8058L31.4876 91.9983H27.9994C26.895 91.9983 25.9995 92.8936 25.9995 93.9981C25.9995 95.1025 26.895 95.998 27.9994 95.998H39.0973C39.0999 95.998 39.1024 95.9982 39.105 95.9982C39.1076 95.9982 39.1101 95.998 39.1127 95.998L67.9976 95.9984C69.102 95.9984 69.9975 95.1029 69.9975 93.9985C69.9975 92.8939 69.102 91.9986 67.9976 91.9986L46.7231 91.9983L93.4519 45.2695C96.8494 41.8716 96.8494 36.343 93.4517 32.9455ZM90.6234 42.4413L42.4389 90.6258C41.5553 91.5093 40.374 91.9964 39.1123 91.9983H39.0971C37.8358 91.9962 36.6549 91.5093 35.7716 90.6258L10.5366 65.3905L56.8106 19.1161C57.5916 18.3351 57.5916 17.0687 56.8106 16.2878C56.0295 15.5069 54.7635 15.5069 53.9822 16.288L7.70813 62.5624L5.37263 60.2269C4.48744 59.3418 3.99994 58.1579 3.99994 56.8934C3.99994 55.6289 4.48744 54.4448 5.37281 53.5594L53.5569 5.37531C54.4423 4.49012 55.6264 4.00262 56.8909 4.00262C58.1554 4.00262 59.3394 4.49012 60.2248 5.3755L71.0441 16.1946L24.7695 62.4696C23.9886 63.2504 23.9886 64.5168 24.7695 65.2981C25.1601 65.6884 25.6719 65.8836 26.1836 65.8836C26.6953 65.8836 27.2072 65.6883 27.5978 65.2979L73.8724 19.0231L90.6234 35.7736C92.4615 37.6118 92.4613 40.603 90.6234 42.4413Z" fill="#226AE2"/>
</svg>
